<?xml version="1.0" encoding="UTF-8"?>
<svg version="1.1" xmlns="http://www.w3.org/2000/svg" width="144" height="144">
<path d="M0 0 C43.56 0 87.12 0 132 0 C132 0.99 132 1.98 132 3 C132.99 3 133.98 3 135 3 C135 3.99 135 4.98 135 6 C135.99 6 136.98 6 138 6 C138 49.56 138 93.12 138 138 C137.01 138 136.02 138 135 138 C135 138.99 135 139.98 135 141 C134.01 141 133.02 141 132 141 C132 141.99 132 142.98 132 144 C88.44 144 44.88 144 0 144 C0 143.01 0 142.02 0 141 C-0.99 141 -1.98 141 -3 141 C-3 140.01 -3 139.02 -3 138 C-3.99 138 -4.98 138 -6 138 C-6 94.44 -6 50.88 -6 6 C-5.01 6 -4.02 6 -3 6 C-3 5.01 -3 4.02 -3 3 C-2.01 3 -1.02 3 0 3 C0 2.01 0 1.02 0 0 Z M6 30 C6 63.66 6 97.32 6 132 C45.6 132 85.2 132 126 132 C126 98.34 126 64.68 126 30 C86.4 30 46.8 30 6 30 Z " fill="#61788E" transform="translate(6,0)"/>
<path d="M0 0 C33.66 0 67.32 0 102 0 C102 5.94 102 11.88 102 18 C68.34 18 34.68 18 0 18 C0 12.06 0 6.12 0 0 Z " fill="#2C3155" transform="translate(9,6)"/>
<path d="M0 0 C43.56 0 87.12 0 132 0 C132 0.99 132 1.98 132 3 C132.99 3 133.98 3 135 3 C135 3.99 135 4.98 135 6 C135.99 6 136.98 6 138 6 C138 49.56 138 93.12 138 138 C137.01 138 136.02 138 135 138 C135 138.99 135 139.98 135 141 C134.01 141 133.02 141 132 141 C132 141.99 132 142.98 132 144 C88.44 144 44.88 144 0 144 C0 143.01 0 142.02 0 141 C-0.99 141 -1.98 141 -3 141 C-3 140.01 -3 139.02 -3 138 C-3.99 138 -4.98 138 -6 138 C-6 94.44 -6 50.88 -6 6 C-5.01 6 -4.02 6 -3 6 C-3 5.01 -3 4.02 -3 3 C-2.01 3 -1.02 3 0 3 C0 2.01 0 1.02 0 0 Z M3 3 C3 3.99 3 4.98 3 6 C2.01 6 1.02 6 0 6 C0 6.99 0 7.98 0 9 C-0.99 9 -1.98 9 -3 9 C-3 50.58 -3 92.16 -3 135 C-2.01 135 -1.02 135 0 135 C0 135.99 0 136.98 0 138 C0.99 138 1.98 138 3 138 C3 138.99 3 139.98 3 141 C44.58 141 86.16 141 129 141 C129 140.01 129 139.02 129 138 C129.99 138 130.98 138 132 138 C132 137.01 132 136.02 132 135 C132.99 135 133.98 135 135 135 C135 93.42 135 51.84 135 9 C134.01 9 133.02 9 132 9 C132 8.01 132 7.02 132 6 C131.01 6 130.02 6 129 6 C129 5.01 129 4.02 129 3 C87.42 3 45.84 3 3 3 Z " fill="#110D38" transform="translate(6,0)"/>
<path d="M0 0 C41.58 0 83.16 0 126 0 C126 0.99 126 1.98 126 3 C85.41 3 44.82 3 3 3 C3 36.66 3 70.32 3 105 C2.01 105 1.02 105 0 105 C0 70.35 0 35.7 0 0 Z " fill="#465471" transform="translate(9,27)"/>
<path d="M0 0 C39.6 0 79.2 0 120 0 C120 0.99 120 1.98 120 3 C80.4 3 40.8 3 0 3 C0 2.01 0 1.02 0 0 Z " fill="#789BAA" transform="translate(12,132)"/>
<path d="M0 0 C0.99 0 1.98 0 3 0 C3 33.66 3 67.32 3 102 C2.01 102 1.02 102 0 102 C0 68.34 0 34.68 0 0 Z " fill="#789BAA" transform="translate(132,30)"/>
<path d="M0 0 C5.94 0 11.88 0 18 0 C18 0.99 18 1.98 18 3 C13.05 3 8.1 3 3 3 C3 7.95 3 12.9 3 18 C2.01 18 1.02 18 0 18 C0 12.06 0 6.12 0 0 Z " fill="#465471" transform="translate(117,6)"/>
<path d="M0 0 C0.99 0 1.98 0 3 0 C3 4.95 3 9.9 3 15 C-1.95 15 -6.9 15 -12 15 C-12 14.01 -12 13.02 -12 12 C-8.04 12 -4.08 12 0 12 C0 8.04 0 4.08 0 0 Z " fill="#789BAA" transform="translate(132,9)"/>
</svg>
